<mxfile host="app.diagrams.net" modified="2023-05-07T08:58:36.953Z" agent="Mozilla/5.0 (Windows NT 10.0; Win64; x64) AppleWebKit/537.36 (KHTML, like Gecko) Chrome/112.0.0.0 Safari/537.36" etag="zdCxOm4Cy3R3N9-kGSuP" version="21.1.4" type="device">
  <diagram name="Page-1" id="b520641d-4fe3-3701-9064-5fc419738815">
    <mxGraphModel dx="1290" dy="573" grid="1" gridSize="10" guides="1" tooltips="1" connect="1" arrows="1" fold="1" page="1" pageScale="1" pageWidth="1100" pageHeight="850" background="none" math="0" shadow="0">
      <root>
        <mxCell id="0" />
        <mxCell id="1" parent="0" />
        <mxCell id="f5T8762gjOhka3tlcLSu-1" value="Pharmazeal" style="swimlane;whiteSpace=wrap;html=1;" vertex="1" parent="1">
          <mxGeometry x="500" y="40" width="280" height="480" as="geometry" />
        </mxCell>
        <mxCell id="f5T8762gjOhka3tlcLSu-9" value="Logout" style="ellipse;whiteSpace=wrap;html=1;" vertex="1" parent="f5T8762gjOhka3tlcLSu-1">
          <mxGeometry x="90" y="420" width="100" height="50" as="geometry" />
        </mxCell>
        <mxCell id="f5T8762gjOhka3tlcLSu-6" value="Manage Customer Information" style="ellipse;whiteSpace=wrap;html=1;" vertex="1" parent="f5T8762gjOhka3tlcLSu-1">
          <mxGeometry x="80" y="360" width="120" height="50" as="geometry" />
        </mxCell>
        <mxCell id="f5T8762gjOhka3tlcLSu-5" value="Manage Inventory" style="ellipse;whiteSpace=wrap;html=1;" vertex="1" parent="f5T8762gjOhka3tlcLSu-1">
          <mxGeometry x="80" y="300" width="100" height="50" as="geometry" />
        </mxCell>
        <mxCell id="f5T8762gjOhka3tlcLSu-10" value="Create account" style="ellipse;whiteSpace=wrap;html=1;" vertex="1" parent="f5T8762gjOhka3tlcLSu-1">
          <mxGeometry x="70" y="100" width="100" height="50" as="geometry" />
        </mxCell>
        <mxCell id="f5T8762gjOhka3tlcLSu-4" value="Manage sales" style="ellipse;whiteSpace=wrap;html=1;" vertex="1" parent="f5T8762gjOhka3tlcLSu-1">
          <mxGeometry x="80" y="240" width="100" height="50" as="geometry" />
        </mxCell>
        <mxCell id="f5T8762gjOhka3tlcLSu-3" value="Login" style="ellipse;whiteSpace=wrap;html=1;" vertex="1" parent="f5T8762gjOhka3tlcLSu-1">
          <mxGeometry x="70" y="40" width="100" height="50" as="geometry" />
        </mxCell>
        <mxCell id="f5T8762gjOhka3tlcLSu-2" value="Manage Users" style="ellipse;whiteSpace=wrap;html=1;" vertex="1" parent="f5T8762gjOhka3tlcLSu-1">
          <mxGeometry x="80" y="170" width="100" height="50" as="geometry" />
        </mxCell>
        <mxCell id="f5T8762gjOhka3tlcLSu-8" value="Admin" style="shape=umlActor;verticalLabelPosition=bottom;verticalAlign=top;html=1;outlineConnect=0;" vertex="1" parent="1">
          <mxGeometry x="360" y="100" width="30" height="60" as="geometry" />
        </mxCell>
        <mxCell id="f5T8762gjOhka3tlcLSu-11" value="" style="endArrow=classic;html=1;rounded=0;entryX=0;entryY=0.5;entryDx=0;entryDy=0;exitX=1;exitY=0.3333333333333333;exitDx=0;exitDy=0;exitPerimeter=0;" edge="1" parent="1" source="f5T8762gjOhka3tlcLSu-8" target="f5T8762gjOhka3tlcLSu-3">
          <mxGeometry width="50" height="50" relative="1" as="geometry">
            <mxPoint x="410" y="250" as="sourcePoint" />
            <mxPoint x="460" y="200" as="targetPoint" />
          </mxGeometry>
        </mxCell>
        <mxCell id="f5T8762gjOhka3tlcLSu-12" value="" style="endArrow=classic;html=1;rounded=0;entryX=0;entryY=0.5;entryDx=0;entryDy=0;exitX=1;exitY=0.3333333333333333;exitDx=0;exitDy=0;exitPerimeter=0;" edge="1" parent="1" source="f5T8762gjOhka3tlcLSu-8" target="f5T8762gjOhka3tlcLSu-10">
          <mxGeometry width="50" height="50" relative="1" as="geometry">
            <mxPoint x="420" y="260" as="sourcePoint" />
            <mxPoint x="470" y="210" as="targetPoint" />
          </mxGeometry>
        </mxCell>
        <mxCell id="f5T8762gjOhka3tlcLSu-13" value="" style="endArrow=classic;html=1;rounded=0;entryX=0;entryY=0.5;entryDx=0;entryDy=0;exitX=1;exitY=0.3333333333333333;exitDx=0;exitDy=0;exitPerimeter=0;" edge="1" parent="1" source="f5T8762gjOhka3tlcLSu-8" target="f5T8762gjOhka3tlcLSu-2">
          <mxGeometry width="50" height="50" relative="1" as="geometry">
            <mxPoint x="430" y="270" as="sourcePoint" />
            <mxPoint x="480" y="220" as="targetPoint" />
          </mxGeometry>
        </mxCell>
        <mxCell id="f5T8762gjOhka3tlcLSu-14" value="" style="endArrow=classic;html=1;rounded=0;entryX=0;entryY=0.5;entryDx=0;entryDy=0;exitX=1;exitY=0.3333333333333333;exitDx=0;exitDy=0;exitPerimeter=0;" edge="1" parent="1" source="f5T8762gjOhka3tlcLSu-8" target="f5T8762gjOhka3tlcLSu-4">
          <mxGeometry width="50" height="50" relative="1" as="geometry">
            <mxPoint x="440" y="280" as="sourcePoint" />
            <mxPoint x="490" y="230" as="targetPoint" />
          </mxGeometry>
        </mxCell>
        <mxCell id="f5T8762gjOhka3tlcLSu-15" value="" style="endArrow=classic;html=1;rounded=0;entryX=0;entryY=0.5;entryDx=0;entryDy=0;exitX=1;exitY=0.3333333333333333;exitDx=0;exitDy=0;exitPerimeter=0;" edge="1" parent="1" source="f5T8762gjOhka3tlcLSu-8" target="f5T8762gjOhka3tlcLSu-5">
          <mxGeometry width="50" height="50" relative="1" as="geometry">
            <mxPoint x="450" y="290" as="sourcePoint" />
            <mxPoint x="500" y="240" as="targetPoint" />
          </mxGeometry>
        </mxCell>
        <mxCell id="f5T8762gjOhka3tlcLSu-16" value="" style="endArrow=classic;html=1;rounded=0;entryX=0;entryY=0.5;entryDx=0;entryDy=0;exitX=1;exitY=0.3333333333333333;exitDx=0;exitDy=0;exitPerimeter=0;" edge="1" parent="1" source="f5T8762gjOhka3tlcLSu-8" target="f5T8762gjOhka3tlcLSu-6">
          <mxGeometry width="50" height="50" relative="1" as="geometry">
            <mxPoint x="460" y="300" as="sourcePoint" />
            <mxPoint x="510" y="250" as="targetPoint" />
          </mxGeometry>
        </mxCell>
        <mxCell id="f5T8762gjOhka3tlcLSu-17" value="" style="endArrow=classic;html=1;rounded=0;entryX=0;entryY=0.5;entryDx=0;entryDy=0;exitX=1;exitY=0.3333333333333333;exitDx=0;exitDy=0;exitPerimeter=0;" edge="1" parent="1" source="f5T8762gjOhka3tlcLSu-8" target="f5T8762gjOhka3tlcLSu-9">
          <mxGeometry width="50" height="50" relative="1" as="geometry">
            <mxPoint x="470" y="310" as="sourcePoint" />
            <mxPoint x="520" y="260" as="targetPoint" />
          </mxGeometry>
        </mxCell>
      </root>
    </mxGraphModel>
  </diagram>
</mxfile>
